<?xml version="1.0" encoding="UTF-8" standalone="no"?>
<!DOCTYPE svg PUBLIC "-//W3C//DTD SVG 1.1//EN" "http://www.w3.org/Graphics/SVG/1.1/DTD/svg11.dtd">
<svg width="100%" height="100%" viewBox="0 0 300 300" version="1.1" xmlns="http://www.w3.org/2000/svg" xmlns:xlink="http://www.w3.org/1999/xlink" xml:space="preserve" xmlns:serif="http://www.serif.com/" style="fill-rule:evenodd;clip-rule:evenodd;stroke-linejoin:round;stroke-miterlimit:2;">
    <g id="background_logo">
        <path d="M38.19,205.209C29.932,188.16 25.305,169.059 25.305,148.893C25.305,77.051 84.03,18.725 156.364,18.725C188.675,18.725 218.271,30.363 241.133,49.649C253.712,45.251 283.03,36.35 289.86,46.222C297.307,56.987 284.182,81.944 275.732,95.113C283.239,111.507 287.423,129.719 287.423,148.893C287.423,220.735 228.697,279.062 156.364,279.062C119.944,279.062 86.974,264.275 63.208,240.418L4.035,277.811L54.478,230.738C53.194,229.163 51.946,227.559 50.737,225.926L33.772,231.996L45.395,218.143C44.468,216.68 43.568,215.197 42.699,213.699L4.052,236.402L38.19,205.209Z" style="fill:rgb(8,126,139);"/>
    </g>
    <g id="logo">
        <g transform="matrix(1.96838,0,0,1.96838,-266.444,-178.431)">
            <path d="M214.615,102.713C249.759,102.713 278.291,131.093 278.291,166.049C278.291,201.005 249.759,229.385 214.615,229.385C179.472,229.385 150.94,201.005 150.94,166.049C150.94,131.093 179.472,102.713 214.615,102.713ZM214.307,105.634C247.764,105.634 274.926,132.856 274.926,166.385C274.926,199.914 247.764,227.136 214.307,227.136C180.85,227.136 153.687,199.914 153.687,166.385C153.687,132.856 180.85,105.634 214.307,105.634Z" style="fill:rgb(255,90,95);"/>
        </g>
        <g transform="matrix(1.16047,0,0,1.16047,-93.053,-44.2781)">
            <path d="M214.615,102.713C249.759,102.713 278.291,131.093 278.291,166.049C278.291,201.005 249.759,229.385 214.615,229.385C179.472,229.385 150.94,201.005 150.94,166.049C150.94,131.093 179.472,102.713 214.615,102.713ZM214.307,105.634C247.764,105.634 274.926,132.856 274.926,166.385C274.926,199.914 247.764,227.136 214.307,227.136C180.85,227.136 153.687,199.914 153.687,166.385C153.687,132.856 180.85,105.634 214.307,105.634Z" style="fill:rgb(255,90,95);"/>
        </g>
        <g transform="matrix(1.96838,0,0,1.96838,-266.444,-178.431)">
            <path d="M173.315,161.98L158.513,159.229L159.472,154.068C159.807,152.268 160.348,151.039 161.094,150.381C161.841,149.723 162.921,149.525 164.334,149.788C165.934,150.085 167.084,150.832 167.783,152.028C168.481,153.223 168.658,154.748 168.314,156.601L168.076,157.881L173.876,158.96L173.315,161.98ZM166.046,157.504L166.157,156.904C166.353,155.851 166.262,154.973 165.886,154.272C165.509,153.571 164.901,153.142 164.061,152.986C162.587,152.712 161.676,153.512 161.328,155.386L161.105,156.586L166.046,157.504Z" style="fill:rgb(255,90,95);fill-rule:nonzero;"/>
            <path d="M176.038,149.462L162.875,142.154L164.396,139.415L175.691,145.686L178.985,139.754L180.852,140.791L176.038,149.462Z" style="fill:rgb(255,90,95);fill-rule:nonzero;"/>
            <path d="M180.962,140.02L175.507,124.813L177.872,122.758L192.171,130.276L189.745,132.385L185.927,130.38L181.228,134.464L182.682,138.525L180.962,140.02ZM180.497,132.445L184.029,129.375L178.325,126.38L180.497,132.445Z" style="fill:rgb(255,90,95);fill-rule:nonzero;"/>
            <path d="M194.296,129.339L189.057,115.225L191.641,114.266L201.763,121.479L198.184,111.837L200.539,110.963L205.779,125.077L203.146,126.054L193.073,118.823L196.652,128.465L194.296,129.339Z" style="fill:rgb(255,90,95);fill-rule:nonzero;"/>
            <path d="M209.593,124.609L209.747,109.554L219.156,109.65L219.135,111.715L212.858,111.651L212.816,115.852L217.963,115.905L217.942,117.919L212.795,117.866L212.748,122.505L219.502,122.574L219.48,124.71L209.593,124.609Z" style="fill:rgb(255,90,95);fill-rule:nonzero;"/>
            <path d="M225.699,126.282L229.75,113.94L224.628,112.258L225.272,110.296L238.503,114.64L237.859,116.602L232.737,114.92L228.685,127.262L225.699,126.282Z" style="fill:rgb(255,90,95);fill-rule:nonzero;"/>
        </g>
        <g transform="matrix(1.96838,0,0,1.96838,-266.444,-178.431)">
            <path d="M186.835,214.167L193.897,200.87L202.207,205.284L201.238,207.108L195.695,204.164L193.725,207.874L198.271,210.289L197.326,212.067L192.78,209.653L190.604,213.75L196.569,216.918L195.567,218.805L186.835,214.167Z" style="fill:rgb(255,90,95);fill-rule:nonzero;"/>
            <path d="M202.545,221.561L208.476,214.998L205.131,206.728L208.737,207.304L210.961,212.789L215.035,208.31L217.537,208.709L211.856,214.992L215.322,223.602L211.726,223.027L209.35,217.198L205.046,221.96L202.545,221.561Z" style="fill:rgb(255,90,95);fill-rule:nonzero;"/>
            <path d="M223.892,222.835L219.566,208.415L224.594,206.907C226.348,206.381 227.688,206.299 228.614,206.662C229.541,207.024 230.211,207.894 230.624,209.271C231.092,210.83 230.954,212.194 230.21,213.362C229.467,214.53 228.192,215.385 226.386,215.927L225.139,216.301L226.835,221.953L223.892,222.835ZM224.546,214.323L225.13,214.148C226.157,213.84 226.896,213.358 227.347,212.703C227.798,212.047 227.901,211.31 227.655,210.491C227.224,209.056 226.096,208.612 224.271,209.159L223.102,209.51L224.546,214.323Z" style="fill:rgb(255,90,95);fill-rule:nonzero;"/>
            <path d="M241.459,215.735L231.884,204.117L236.232,200.532C238.593,198.587 240.564,198.575 242.147,200.496C242.738,201.212 243.076,202.03 243.161,202.949C243.246,203.868 243.067,204.773 242.624,205.665L250.894,207.958L247.951,210.384L241.156,208.009L239.821,209.109L243.735,213.858L241.459,215.735ZM238.508,207.516L239.065,207.056C240.818,205.611 241.11,204.18 239.942,202.762C239.088,201.725 237.878,201.852 236.313,203.142L235.473,203.834L238.508,207.516Z" style="fill:rgb(255,90,95);fill-rule:nonzero;"/>
            <path d="M256.556,201.857L244.506,192.83L250.148,185.299L251.8,186.537L248.037,191.561L251.4,194.08L254.486,189.96L256.098,191.167L253.012,195.287L256.724,198.068L260.774,192.662L262.484,193.943L256.556,201.857Z" style="fill:rgb(255,90,95);fill-rule:nonzero;"/>
            <path d="M266.288,186.925L263.857,186.051C265.044,184.755 265.832,183.565 266.223,182.48C266.496,181.721 266.542,181.062 266.361,180.503C266.18,179.944 265.799,179.56 265.219,179.351C264.759,179.186 264.322,179.184 263.908,179.344C263.493,179.505 262.931,179.89 262.222,180.5L261.354,181.258C260.182,182.271 259.175,182.921 258.333,183.209C257.491,183.497 256.632,183.483 255.758,183.169C254.591,182.749 253.807,181.982 253.407,180.869C253.008,179.756 253.062,178.494 253.569,177.084C253.976,175.954 254.597,174.74 255.432,173.44L257.7,174.257C256.637,175.51 255.953,176.558 255.65,177.4C255.416,178.051 255.373,178.625 255.523,179.122C255.672,179.619 255.982,179.952 256.455,180.122C256.844,180.262 257.235,180.248 257.627,180.079C258.019,179.91 258.566,179.523 259.266,178.918L260.196,178.106C261.453,177.016 262.497,176.329 263.328,176.044C264.158,175.759 265.036,175.783 265.961,176.116C267.276,176.589 268.131,177.448 268.526,178.693C268.921,179.938 268.81,181.418 268.192,183.135C267.784,184.271 267.149,185.534 266.288,186.925Z" style="fill:rgb(255,90,95);fill-rule:nonzero;"/>
            <path d="M271.027,169.539L268.447,169.686C269.032,168.029 269.291,166.625 269.226,165.474C269.18,164.669 268.964,164.044 268.579,163.601C268.193,163.157 267.692,162.953 267.076,162.989C266.589,163.016 266.186,163.186 265.867,163.496C265.549,163.806 265.183,164.381 264.769,165.219L264.267,166.257C263.586,167.647 262.914,168.64 262.252,169.235C261.59,169.83 260.795,170.154 259.867,170.207C258.628,170.278 257.607,169.879 256.803,169.011C256,168.144 255.555,166.962 255.47,165.465C255.401,164.267 255.497,162.906 255.756,161.384L258.163,161.246C257.676,162.816 257.457,164.048 257.508,164.941C257.548,165.632 257.733,166.177 258.065,166.575C258.397,166.974 258.814,167.159 259.315,167.131C259.728,167.107 260.081,166.941 260.376,166.632C260.671,166.323 261.022,165.753 261.43,164.921L261.968,163.81C262.697,162.315 263.388,161.274 264.041,160.686C264.693,160.099 265.511,159.777 266.492,159.721C267.887,159.641 269.01,160.097 269.861,161.087C270.713,162.078 271.19,163.484 271.295,165.305C271.363,166.51 271.274,167.921 271.027,169.539Z" style="fill:rgb(255,90,95);fill-rule:nonzero;"/>
        </g>
        <g transform="matrix(1.96838,0,0,1.96838,-266.444,-178.431)">
            <path d="M179.726,163.626C179.726,163.626 184.131,157.049 192.605,153.137C204.118,147.821 218.863,147.041 218.863,147.041C218.863,147.041 232.772,131.939 248.149,122.549C263.527,113.16 278.888,114.984 278.888,114.984C278.888,114.984 282.795,114.968 281.289,120.037C279.783,125.105 275.039,148.621 233.988,166.278C226.393,193.689 207.787,200.312 207.787,200.312C207.787,200.312 214.462,185.432 210.941,180.126C205.591,183.245 201.723,183.617 201.723,183.617L195.299,175.436C195.299,175.436 197.71,168.688 200.036,166.099C192.904,158.831 179.726,163.626 179.726,163.626Z" style="fill:rgb(255,90,95);"/>
        </g>
        <g transform="matrix(1.96838,0,0,1.96838,-266.444,-178.431)">
            <path d="M140.349,208.53L189.715,169.46C189.715,169.46 193.763,168.508 191.914,171.691C190.065,174.873 140.349,208.53 140.349,208.53Z" style="fill:rgb(255,90,95);"/>
        </g>
        <g transform="matrix(1.96838,0,0,1.96838,-266.444,-178.431)">
            <path d="M155.301,206.907L189.174,180.567C189.174,180.567 194.549,181.065 190.841,184.65C187.668,187.718 155.301,206.907 155.301,206.907Z" style="fill:rgb(255,90,95);"/>
        </g>
        <g transform="matrix(1.96838,0,0,1.96838,-266.444,-178.431)">
            <path d="M140.404,229.445L182.989,195.032C182.989,195.032 187.061,194.068 184.75,197.005C182.598,199.742 140.404,229.445 140.404,229.445Z" style="fill:rgb(255,90,95);"/>
        </g>
    </g>
</svg>
